<svg width="131" height="131" viewBox="0 0 131 131" fill="none" xmlns="http://www.w3.org/2000/svg">
<rect y="0.5" width="131" height="130" rx="8" fill="#1E429F"/>
<path d="M37.517 74.5V57.0455H41.2074V71.4574H48.6903V74.5H37.517ZM56.9808 74.7557C55.657 74.7557 54.5121 74.4744 53.5462 73.9119C52.5859 73.3437 51.8445 72.554 51.3217 71.5426C50.799 70.5256 50.5376 69.3466 50.5376 68.0057C50.5376 66.6534 50.799 65.4716 51.3217 64.4602C51.8445 63.4432 52.5859 62.6534 53.5462 62.0909C54.5121 61.5227 55.657 61.2386 56.9808 61.2386C58.3047 61.2386 59.4467 61.5227 60.407 62.0909C61.3729 62.6534 62.1172 63.4432 62.6399 64.4602C63.1626 65.4716 63.424 66.6534 63.424 68.0057C63.424 69.3466 63.1626 70.5256 62.6399 71.5426C62.1172 72.554 61.3729 73.3437 60.407 73.9119C59.4467 74.4744 58.3047 74.7557 56.9808 74.7557ZM56.9979 71.9432C57.6001 71.9432 58.103 71.7727 58.5064 71.4318C58.9098 71.0852 59.2138 70.6136 59.4183 70.017C59.6286 69.4205 59.7337 68.7415 59.7337 67.9801C59.7337 67.2188 59.6286 66.5398 59.4183 65.9432C59.2138 65.3466 58.9098 64.875 58.5064 64.5284C58.103 64.1818 57.6001 64.0085 56.9979 64.0085C56.3899 64.0085 55.8786 64.1818 55.4638 64.5284C55.0547 64.875 54.745 65.3466 54.5348 65.9432C54.3303 66.5398 54.228 67.2188 54.228 67.9801C54.228 68.7415 54.3303 69.4205 54.5348 70.017C54.745 70.6136 55.0547 71.0852 55.4638 71.4318C55.8786 71.7727 56.3899 71.9432 56.9979 71.9432ZM71.6825 79.6818C70.5064 79.6818 69.4979 79.5199 68.657 79.196C67.8217 78.8778 67.157 78.4432 66.6626 77.892C66.1683 77.3409 65.8473 76.7216 65.6996 76.0341L69.0575 75.5824C69.1598 75.8438 69.3217 76.0881 69.5433 76.3153C69.7649 76.5426 70.0575 76.7244 70.4212 76.8608C70.7905 77.0028 71.2393 77.0739 71.7678 77.0739C72.5575 77.0739 73.2081 76.8807 73.7195 76.4943C74.2365 76.1136 74.495 75.4744 74.495 74.5767V72.1818H74.3416C74.1825 72.5455 73.9439 72.8892 73.6257 73.2131C73.3075 73.5369 72.8984 73.8011 72.3984 74.0057C71.8984 74.2102 71.3018 74.3125 70.6087 74.3125C69.6257 74.3125 68.7308 74.0852 67.924 73.6307C67.1229 73.1705 66.4837 72.4687 66.0064 71.5256C65.5348 70.5767 65.299 69.3778 65.299 67.929C65.299 66.446 65.5405 65.2074 66.0234 64.2131C66.5064 63.2187 67.1484 62.4744 67.9496 61.9801C68.7564 61.4858 69.6399 61.2386 70.6001 61.2386C71.3331 61.2386 71.9467 61.3636 72.4411 61.6136C72.9354 61.858 73.3331 62.1648 73.6342 62.5341C73.9411 62.8977 74.1768 63.2557 74.3416 63.608H74.478V61.4091H78.0831V74.6278C78.0831 75.7415 77.8104 76.6733 77.2649 77.4233C76.7195 78.1733 75.9638 78.7358 74.9979 79.1108C74.0376 79.4915 72.9325 79.6818 71.6825 79.6818ZM71.7592 71.5852C72.3445 71.5852 72.8388 71.4403 73.2422 71.1506C73.6513 70.8551 73.9638 70.4347 74.1797 69.8892C74.4013 69.3381 74.5121 68.679 74.5121 67.9119C74.5121 67.1449 74.4041 66.4801 74.1882 65.9176C73.9723 65.3494 73.6598 64.9091 73.2507 64.5966C72.8416 64.2841 72.3445 64.1278 71.7592 64.1278C71.1626 64.1278 70.6598 64.2898 70.2507 64.6136C69.8416 64.9318 69.532 65.375 69.3217 65.9432C69.1115 66.5114 69.0064 67.1676 69.0064 67.9119C69.0064 68.6676 69.1115 69.321 69.3217 69.8722C69.5376 70.4176 69.8473 70.8409 70.2507 71.142C70.6598 71.4375 71.1626 71.5852 71.7592 71.5852ZM86.8871 74.7557C85.5632 74.7557 84.4183 74.4744 83.4524 73.9119C82.4922 73.3437 81.7507 72.554 81.228 71.5426C80.7053 70.5256 80.4439 69.3466 80.4439 68.0057C80.4439 66.6534 80.7053 65.4716 81.228 64.4602C81.7507 63.4432 82.4922 62.6534 83.4524 62.0909C84.4183 61.5227 85.5632 61.2386 86.8871 61.2386C88.2109 61.2386 89.353 61.5227 90.3132 62.0909C91.2791 62.6534 92.0234 63.4432 92.5462 64.4602C93.0689 65.4716 93.3303 66.6534 93.3303 68.0057C93.3303 69.3466 93.0689 70.5256 92.5462 71.5426C92.0234 72.554 91.2791 73.3437 90.3132 73.9119C89.353 74.4744 88.2109 74.7557 86.8871 74.7557ZM86.9041 71.9432C87.5064 71.9432 88.0092 71.7727 88.4126 71.4318C88.8161 71.0852 89.12 70.6136 89.3246 70.017C89.5348 69.4205 89.6399 68.7415 89.6399 67.9801C89.6399 67.2188 89.5348 66.5398 89.3246 65.9432C89.12 65.3466 88.8161 64.875 88.4126 64.5284C88.0092 64.1818 87.5064 64.0085 86.9041 64.0085C86.2962 64.0085 85.7848 64.1818 85.37 64.5284C84.9609 64.875 84.6513 65.3466 84.4411 65.9432C84.2365 66.5398 84.1342 67.2188 84.1342 67.9801C84.1342 68.7415 84.2365 69.4205 84.4411 70.017C84.6513 70.6136 84.9609 71.0852 85.37 71.4318C85.7848 71.7727 86.2962 71.9432 86.9041 71.9432Z" fill="white"/>
</svg>
