<svg width="21" height="24" viewBox="0 0 21 24" fill="none" xmlns="http://www.w3.org/2000/svg">
<g clip-path="url(#clip0_1115_2802)">
<path d="M16.5656 1.5H4.43906C1.99687 1.5 0 3.49687 0 5.93437V18.0609C0 20.5031 1.99687 22.5 4.43906 22.5H16.5656C19.0078 22.5 21.0047 20.5031 21.0047 18.0656V5.93437C21.0047 3.49687 19.0078 1.5 16.5656 1.5ZM14.2219 16.3312C12.9141 18.5906 10.0078 19.3734 7.74375 18.075C6.67031 19.9406 5.17031 18.4781 5.76094 17.4562L6.49688 16.1813C6.77344 15.6984 7.39688 15.5297 7.87969 15.8109C8.75156 16.3172 7.875 15.8062 8.74688 16.3125C10.0406 17.0578 11.7188 16.6078 12.4688 15.3141C13.2141 14.0203 12.7641 12.3422 11.4703 11.5922C10.6359 11.1141 11.4422 11.5734 10.5984 11.0953C9.44531 10.4297 10.4391 8.6625 11.6109 9.3375C12.4828 9.84375 11.6063 9.33281 12.4781 9.83906C14.7469 11.1516 15.5297 14.0719 14.2219 16.3312ZM15.2438 6.54375C14.4469 7.92656 14.4797 7.89375 14.3531 8.02031C14.0484 8.325 13.5891 8.42812 13.1109 8.18906C12.2391 7.68281 13.1156 8.19375 12.2438 7.6875C10.95 6.94219 9.27188 7.39219 8.52188 8.68594C7.77188 9.97969 8.22656 11.6578 9.52031 12.4078C9.52031 12.4078 10.3875 12.9047 10.3922 12.9047C11.5453 13.5703 10.5516 15.3375 9.37969 14.6625C8.50781 14.1562 9.38438 14.6672 8.5125 14.1609C6.25313 12.8578 5.47031 9.9375 6.77344 7.67344C8.08125 5.41406 10.9875 4.63125 13.2516 5.92969L13.4766 5.53594C14.1469 4.36875 15.9141 5.38125 15.2438 6.54375Z" fill="#6B7280"/>
</g>
<defs>
<clipPath id="clip0_1115_2802">
<rect width="21" height="24" fill="white"/>
</clipPath>
</defs>
</svg>
